<?xml version="1.0" encoding="utf-8" ?><svg xmlns="http://www.w3.org/2000/svg" xmlns:xlink="http://www.w3.org/1999/xlink" width="1024" height="1024" viewBox="0 0 1024 1024"><path fill="#063966" d="M534.222 321.787C534.195 313.86 534.406 306.899 538.781 299.924C540.447 297.269 552.962 283.743 555.101 283.297C552.859 286.425 550.801 289.279 548.767 292.544C555.836 290.057 561.734 288.031 568.775 285.243C565.408 288.483 562.905 291.046 558.54 293.068C551.43 296.362 547.26 296.016 541.078 301.222C539.299 305.838 538.355 311.59 541.095 316.05C546.696 319.848 551.149 310.076 560.07 310.883C560.945 315.548 546.817 323.206 542.927 325.405C538.68 335.969 536.163 337.667 527.841 345.243C529.435 350.231 530.367 353.296 532.602 358.007C543.455 357.971 545.764 358.923 550.447 348.477C554.491 346.249 558.183 345.377 562.608 344.208C559.447 346.583 555.865 348.628 555.56 352.872C558.083 358.395 568.409 355.366 573.014 354.024C575.023 348.467 576.379 345.598 579.159 340.325C575.842 337.628 572.375 334.302 572.122 329.791C571.98 327.271 571.412 322.803 572.899 320.97C573.353 321.669 574.414 327.7 574.849 329.368C578.526 325.784 579.394 324.461 582.102 320.254L583.371 319.963C581.468 326.155 579.865 327.581 576.32 332.742C588.788 340.161 589.671 330.843 597.775 332.409C597.828 335.108 588.978 338.805 586.807 339.97C583.601 341.69 582.652 344.203 581.32 347.311C586.223 350.188 591.918 353.309 597.675 353.686C602.755 351.738 608.5 342.911 612.647 342.101C612.14 343.969 610.145 345.224 609.197 346.825C606.716 351.011 604.703 355.099 600.464 357.896C593.866 357.428 592.264 356.922 586.169 354.305C582.636 357.287 574.826 364.648 570.52 365.63C565.977 366.666 558.505 365.593 553.624 366.261C547.499 367.098 541.395 369.201 535.344 369.932L535.017 370.701C534.213 372.564 531.35 378.297 530.129 379.795C524.35 386.882 525.614 399.353 537.041 394.106C543.933 390.941 549.776 381.926 556.92 378.855C568.04 376.577 578.174 381.712 590.059 376.56C597.568 373.305 600.544 369.085 607.116 365.203C612.437 362.06 618.957 362.818 621.112 354.845C622.325 350.359 622.321 346.311 623.747 342.111C624.254 345.317 624.696 348.533 625.073 351.756C631.175 347.635 631.789 343.611 636.325 340.326C635.702 342.655 635.535 343.448 634.477 345.65C632.472 349.82 625.266 353.708 625.173 357.683C626.67 359.357 629.416 359.313 631.557 359.471C641.286 360.193 647.747 357.784 655.506 352.053C656.908 351.017 659.536 348.935 661.086 348.347C646.264 366.092 644.426 362.076 623.528 365.025C618.491 365.736 606.893 368.462 607.671 374.707C608.063 379.305 617.677 380.855 621.287 381.743C631.114 373.863 633.171 371.469 645.263 367.857C642.132 370.252 640.457 371.723 637.701 374.478C636.162 375.186 636.732 374.657 635.893 376.079C633.878 378.552 632.073 380.715 630.292 383.368C636.008 386.457 641.321 389.403 648.162 387.46C654.295 385.717 657.518 379.962 661.95 376.454C660.812 379.758 659.714 383.086 658.39 386.319C667.803 387.662 668.658 386.102 675.513 380.07C671.898 386.161 671.196 386.282 665.41 390.658C665.264 392.139 665.036 392.12 664.013 393.286C661.331 392.299 657.588 390.805 654.922 390.032C637.707 395.709 627.684 396.02 610.619 387.702C608.407 386.624 606.349 385.404 604.033 384.544C596.472 386.333 591.308 390.408 583.846 391.853C579.038 392.784 568.91 391.088 564.897 391.129C558.844 391.191 536.918 407.85 533.473 411.796C533.627 417.664 535.248 435.854 536.757 441.442C540.044 444.583 541.862 446.086 544.303 449.912C556.003 453.088 554.07 451.964 562.106 461.171C566.759 462.735 572.605 463.258 577.476 462.65C586.98 461.463 592.002 465.711 599.426 470.561L598.299 471.861C594.767 471.634 593.137 469.235 588.414 468.778C583.353 466.996 581.08 466.486 575.839 467.146L573.007 468.058C569.168 468.471 561.581 468.875 558.529 467.067C549.469 461.701 549.097 459.02 537.601 457.86L530.801 461.309C528.912 459.494 529.438 459.293 527.234 458.794L526.349 459.442C525.175 463.765 527.702 469.064 529.539 472.906C542.166 473.905 551.847 472.279 557.081 486.603C558.548 490.619 566.78 492.448 570.782 493.881C566.495 492.731 561.014 492.79 557.272 491.076C553.204 489.343 551.196 481.402 546.78 480.614C536.567 478.792 533.344 481.3 523.168 476.921C519.649 477.498 508.76 479.749 506.915 482.752C507.304 487.634 515.438 487.527 518.922 496.488L519.177 497.161C507.13 486.81 484.977 482.07 515.334 472.694C516.362 470.343 517.16 467.965 518.016 465.547L513.323 467.867C506.3 464.697 505.515 464.4 497.835 464.073C493.414 476.61 490.421 476.041 478.389 479.095C472.447 480.603 468.939 485.677 466.303 490.911C466.736 471.274 485.149 476.407 485.914 469.052C483.02 465.511 474.484 469.026 470.722 469.164C468.981 469.228 466.024 468.736 464.248 468.472C460.358 470.698 458.131 472.814 454.869 475.92C450.165 480.4 444.418 483.602 438.43 486.06C439.333 484.918 441.37 483.802 442.638 482.994C449.856 478.392 451.146 476.849 454.147 469.18C447.042 469.588 437.119 469.843 430.415 472.543C427.855 473.574 426.037 476.924 424.758 477.209C425.599 464.193 446.199 469.192 452.523 466.186C463.808 460.82 467.127 461.24 479.297 461.622C482.302 461.716 485.431 458.331 488.065 457.53C492.165 456.283 496.818 457.435 499.934 453.528L499.364 452.9C496.64 452.402 495.166 452.872 492.498 453.413C492.835 449.621 492.601 444.046 493.063 440.68C493.628 436.571 497.327 435.179 495.751 429.029C494.631 424.272 488.158 414.576 483.755 412.088C475.322 407.324 466.36 402.612 458.008 397.412C448.911 397.96 437.374 399.535 428.16 400.605C425.997 404.014 424.711 406.161 420.918 408.12C410.575 413.459 394.043 408.151 383.663 404.996C375.242 407.313 365.05 412.718 356.537 407.871L356.761 407.387C364.339 408.853 372.813 404.953 379.478 401.3C382.813 399.472 383.465 398.138 384.347 394.6L384.524 393.863C385.152 394.096 385.826 394.345 386.433 394.603C392.45 397.108 401.663 408.021 409.353 403.011C414.931 399.377 422.754 393.69 429.357 390.625C430.408 390.137 430.741 388.286 430.744 387.139C427.132 380.741 409.549 382.258 403.282 379.833C400.91 378.915 396.031 374.485 393.847 372.605C403.66 377.208 405.705 377.872 416.679 376.956C411.165 370.617 409.925 366.564 407.696 358.562C402.915 356.424 397.943 354.071 394.458 350.062C393.382 348.824 389.35 343.189 389.451 341.591C398.884 350.024 395.272 349.336 408.405 353.758C408.618 351.609 408.767 338.834 409.094 338.509C409.325 339.066 409.542 343.124 409.733 344.265C410.97 351.688 411.023 364.853 416.556 370.245C419.397 373.013 425.927 376.746 429.102 378.82C440.809 386.467 442.49 386.741 456.008 383.67C458.38 383.212 461.859 383.087 464.146 383.593C470.533 385.005 490.6 399.784 489.953 384.706C489.552 375.355 480.556 373.875 474.681 368.737L474.155 368.268C467.918 368.6 460.893 370.635 454.093 370.865C441.269 371.297 435.019 363.406 426.346 355.493C420.039 349.739 415.682 344.803 415.449 335.776L416.093 335.881C419.684 344.757 420.739 345.431 429.116 350.117C428.58 348.272 426.925 343.558 428.391 342.212C431.483 344.263 434.02 355.516 440.262 358.775C448.108 362.871 458.294 362.214 466.809 360.068C468.17 359.725 468.294 358.978 468.631 358.061C467.815 354.229 462.78 350.981 460.293 347.945C458.962 346.32 458.028 344.794 456.922 343.025C442.025 339.122 436.6 332.54 434.577 317.401C441.178 320.466 441.158 323.493 446.154 327.705C450.526 331.39 460.238 334.341 465.877 336.327C469.974 329.617 471.856 324.957 473.57 317.396C468.982 315.472 463.398 316.447 460.01 311.555C458.761 309.751 457.827 306.805 458.129 304.608L458.723 304.247C460.064 304.772 462.529 307.009 463.534 308.063C466.873 311.561 469.675 311.808 474.292 312.787C474 306.163 472.508 297.246 471.415 290.697C477.449 305.357 480.586 310.988 476.182 327.019C475.176 330.678 473.458 337.615 472.97 341.273L472.87 342.06C476.243 348.006 486.714 359.45 492.668 363.116C494.607 364.309 500.468 366.411 503.216 367.692C505.225 372.483 507.293 377.816 509.809 382.313C512.889 376.04 514.519 371.242 516.541 364.536C515.174 358.826 512.86 352.107 510.196 346.878C507.534 341.652 502.726 336.557 501.633 330.727C500.642 325.442 501.484 318.589 501.952 313.23C494.301 310.725 485.743 307.086 481.606 299.691C480.725 298.116 480.583 294.781 482.409 293.991C484.483 304.717 495.431 305.497 504.175 305.521C509.452 297.911 513.608 292.38 523.397 289.729C524.82 289.344 526.221 289.173 527.366 289.929C526.787 293.085 522.762 297.801 520.853 300.651C513.034 312.325 505.73 326.172 521.016 335.779C526.676 332.168 529.826 327.022 534.222 321.787Z"/><path fill="#063966" d="M384.124 492.986L384.644 493.221C385.75 496.503 384.976 572.238 384.985 581.868C391.113 563.241 402.289 550.377 423.518 551.593C435.178 552.201 446.077 557.568 453.667 566.44C476.225 592.401 470.269 635.53 444.672 657.425C427.19 671.153 399.73 670.174 387.598 649.803C384.41 650.86 379.96 652.413 377.264 654.425C373.487 657.243 371.499 666.502 365.77 665.169C362.713 660.288 365.707 584.228 365.041 572.332C364.248 558.183 366.083 533.344 364.006 517.951C362.99 510.421 361.403 509.502 355.274 505.037L384.124 492.986ZM420.105 659.993C427.726 658.308 433.429 653.077 437.67 646.378C452.489 622.968 451.481 581.008 426.951 564.159C422.681 561.226 416.436 559.613 411.27 559.716C382.661 563.961 383.335 604.56 386.041 626.201C388.279 644.111 399.116 663.459 420.105 659.993Z"/><path fill="#063966" d="M195.06 501.788C197.288 504.091 203.232 521.499 204.751 525.555C214.425 551.433 224.24 577.257 234.195 603.028C240.206 618.639 246.068 636.116 254.444 650.509C257.282 655.386 263.431 660.738 267.857 664.232C268.485 663.759 269.074 663.304 269.655 662.772C276.699 656.325 279.11 652.232 279.547 642.676C280.018 632.372 280.637 578.302 278.358 571.314C277.16 567.642 273.358 564.429 270.767 561.599C279.768 556.306 290.671 553.446 299.694 548.963C299.443 560.391 299.371 571.822 299.477 583.252C308.13 558.263 324.766 546.45 351.17 554.931C348.625 560.056 343.207 570.194 341.52 575.147C326.364 564.499 310.16 560.811 302.515 582.348C298.444 593.816 299.399 605.565 299.639 617.536C299.544 626.804 299.015 638.282 300.784 647.321C302.566 656.418 307.858 660.414 315.026 665.074C283.983 665.756 250.263 664.111 219.636 665.576C222.78 662.596 227.33 659.042 229.033 654.987C232.32 647.16 219.195 618.389 215.965 609.98C196.767 610.107 177.743 610.494 158.488 610.417C154.52 621.411 145.613 638.675 144.79 650.405C144.483 654.786 153.506 662.207 156.981 665.081C145.717 665.655 132.101 665.33 120.749 665.127C124.889 660.356 133.713 653.749 136.679 648.514C144.298 635.069 150.426 616.71 155.96 602.075L181.977 533.77C184.571 526.863 191.463 507.603 195.06 501.788ZM159.926 606.418L187.826 606.371L214.728 606.345C212.021 599.078 189.358 536.714 187.143 534.331C184.573 539.848 182.269 546.255 180.22 552.015C173.762 570.17 166.08 588.191 159.926 606.418Z"/><path fill="#E64331" d="M497.791 238.629C509.295 237.338 519.543 244.889 529.779 248.329C534.14 249.794 552.495 245.981 552.585 252.213C551.544 254.358 544.897 258.726 542.931 259.197C533.796 261.386 529.04 260.162 521.165 256.487C531.228 268.515 540.198 265.624 554.115 264.272C559.863 263.946 569.965 261.643 575.386 263.769C584.079 267.179 580.656 273.313 573.054 275.655C567.353 277.412 563.321 278.012 557.92 279.331C543.451 282.864 529.195 287.398 514.104 286.764C500.686 286.451 491.119 279.823 478.063 283.809C459.145 289.584 459.777 311.602 440.609 315.405C428.548 316.832 408.548 319.339 397.612 314.185C395.444 313.164 392.689 311.256 392.091 308.756C391.629 306.828 392.02 305.124 393.12 303.49C399.473 294.049 437.64 287.929 449.819 284.692C459.518 282.115 468.744 277.915 478.438 275.472C482.297 274.499 486.256 274.541 490.145 273.796C491.018 273.629 491.3 273.776 491.793 273.048C491.402 272.696 491.078 272.356 490.553 272.151C478.036 267.273 467.344 273.089 455.748 277.282C448.924 279.816 440.345 282.503 433.299 279.463C430.569 278.301 426.61 274.262 429.246 271.227C435.562 263.957 447.59 264.909 455.749 261.127C471.237 253.949 480.062 241.159 497.791 238.629Z"/><path fill="#063966" d="M506.648 549.485C508.085 549.784 507.514 558.783 507.514 560.706L507.434 604.657C507.384 616.427 506.878 629.124 508.861 640.739C510.482 650.232 517.978 656.638 527.703 656.769C535.111 656.848 542.254 654.01 547.588 648.868C562.24 634.633 559.284 610.761 559.489 592.322C559.667 576.272 561.669 573.275 550.288 561.552C558.524 557.44 571.149 552.787 579.948 549.467L579.966 613.545C580.028 621.238 579.899 629.122 579.899 636.819C579.9 646.768 582.068 650.595 588.733 657.521C578.483 662.906 560.565 674.736 559.37 654.03C559.028 648.089 559.076 642.498 559.387 636.544C550.519 654.721 540.241 667.613 517.603 665.925C488.133 663.729 486.609 639.492 486.942 615.454C487.102 606.793 487.198 598.13 487.231 589.468C487.29 574.447 488.147 572.975 478.322 561.451L506.648 549.485Z"/><path fill="#063966" d="M770.681 549.234L770.598 616.125C770.542 624.715 769.622 640.423 772.77 648.316C774.073 651.584 777.514 654.909 779.969 657.486C749.557 674.172 749.71 664.977 750.47 635.513C747.026 643.26 744.315 649.722 737.989 655.648C726.556 666.355 707.601 669.43 693.683 662.04C677.41 653.399 677.842 631.381 677.967 615.445L678.19 590.461C678.25 575.832 679.205 572.29 668.993 561.385C676.976 557.44 689.396 552.915 697.911 549.546C698.758 551.121 698.234 560.823 698.201 563.254C698.024 578.455 697.992 593.656 698.107 608.857C698.133 624.302 694.543 657.266 718.659 657.003C751.809 655.952 751.248 617.419 750.058 593.333C749.268 577.332 754.124 574.427 741.492 561.717C750.03 557.443 761.67 552.944 770.681 549.234Z"/><path fill="#063966" d="M831.661 550.209C850.734 548.5 870.543 554.405 879.182 572.655C873.353 577.628 868.267 582.24 862.983 587.758C857.679 567.906 853.585 548.189 825.405 556.339C822.686 557.125 818.716 559.286 816.912 561.456C806.439 574.05 811.91 586.107 825.022 593.283C842.749 604.005 880.11 611.06 879.671 636.973C879.282 659.907 855.945 666.342 836.976 666.554C823.825 665.95 808.38 662.188 798.045 653.424C793.894 649.905 792.743 645.634 791.336 640.639C795.787 635.793 802.283 629.867 807.925 626.508C812.776 644.908 817.092 663.232 840.641 662.496C852.172 662.136 863.685 655.178 862.421 642.288C860.986 632.326 849.488 625.049 839.862 621.246C814.283 611.139 779.673 596.109 801.164 562.638C806.667 554.068 821.371 551.077 831.661 550.209Z"/><path fill="#063966" d="M631.739 528.829C632.418 530.848 632.056 551.121 632.043 554.529C636.922 554.391 653.627 553.306 656.819 555.981L656.304 556.741C651.299 558.674 638.054 558.339 632.003 558.439C631.849 585.394 632.309 612.839 632.377 639.817C632.389 644.22 634.894 653.364 638.664 655.711C651.133 663.474 661.513 651.102 668.447 642.461C665.73 647.671 663.922 650.761 660.312 655.357C642.452 673.496 616.557 669.144 611.735 642.429C609.362 629.284 610.682 617.152 610.842 604.014C610.894 588.676 610.797 573.339 610.551 558.004C604.938 558.031 599.728 558.038 594.108 557.792C598.197 555.732 603.196 554.297 607.473 552.33C618.073 547.457 625.15 538.053 631.739 528.829Z"/><path fill="#E64331" d="M376.328 371.619C384.949 370.981 391.163 372.979 397.533 378.818C399.807 380.902 404.815 383.968 403.451 387.38C398.45 391.395 384.305 391.136 377.396 392.755C365.402 395.565 356.656 401.033 344.283 402.254C338.748 402.274 321.617 400.614 317.835 394.97C317.47 394.425 317.425 392.6 317.993 392.135C327.423 384.413 343.076 389.846 354.412 386.158C365.118 381.889 363.766 375.538 376.328 371.619Z"/><path fill="#E64331" d="M626.591 321.7C639.982 319.694 650.71 324.2 663.04 328.021C667.118 329.286 672.186 326.089 675.093 331.069C674.951 339.195 649.201 343.158 642.375 343.106C637.33 343.012 632.616 337.748 627.458 337.358C622.124 337.165 616.121 338.332 610.996 339.81C604.596 341.655 591.871 343.257 600.013 332.577C607.288 323.035 615.849 322.77 626.591 321.7Z"/><path fill="#E64331" d="M582.102 320.254L581.612 320.19C577.635 319.699 571.625 321.362 571.878 315.521C572.107 310.967 578.144 309.831 580.773 307.481C590.591 298.677 599.403 296.318 612.347 298.834C620.319 300.383 628.198 301.99 636.257 302.984C638.581 303.271 639.62 305.69 639.211 307.817C635.709 312.323 630.563 309.738 626.096 310.995C619.229 312.929 613.99 319.507 606.9 321.134C599.883 322.867 590.014 319.233 583.371 319.963L582.102 320.254Z"/><path fill="#E64331" d="M369.654 348.583C382.856 347.823 393.73 352.729 402.742 362.563C403.546 363.44 403.679 364.148 403.461 365.234C399.926 368.382 386.751 363.057 382.385 363.403C378.76 363.69 372.018 366.224 368.358 367.473C362.313 369.512 331.746 380.269 337.33 363.318C338.592 359.486 364.878 349.77 369.654 348.583Z"/><path fill="#E64331" d="M583.827 274.126C590.955 273.542 596.557 277.082 603.072 279.28C606.693 280.502 610.682 279.824 613.343 282.55C614.665 283.904 614.887 284.417 614.824 286.201C611.311 290.768 598.309 288.562 593.589 289.674C589.269 290.692 582.427 296.394 579.205 299.09C574.49 303.526 561.072 315.548 556.209 304.211C554.906 301.172 559.058 297.649 561.433 296.296C568.07 292.511 570.122 287.121 573.389 280.689C575.418 276.744 579.539 275.19 583.827 274.126Z"/><path fill="#E64331" d="M637.701 374.478C644.034 375.937 648.969 363.348 654.704 360.232C666.547 353.797 673.89 358.879 681.828 367.15C685.993 367.578 696.301 368 699.454 370.433C700.376 371.145 700.56 372.574 700.654 373.681C700.202 375.116 699.357 376.413 697.916 377.035C684.167 382.971 671.367 375.172 657.481 375.33C650.647 375.408 638.41 385.509 635.893 376.079C636.732 374.657 636.162 375.186 637.701 374.478Z"/><path fill="#E64331" d="M415.449 335.776L414.686 335.044C400.314 335.919 385.871 336.488 371.533 337.854C370.164 337.984 368.896 337.775 367.657 337.184C363.431 325.773 405.739 316.257 412.042 322.358C417.629 327.766 432.052 325.516 434.838 330.825C434.714 332.75 435.047 331.918 433.778 333.398C429.763 335.218 421.324 334.046 416.66 334.775C416.619 334.781 416.098 335.857 416.093 335.881L415.449 335.776Z"/><path fill="#063966" d="M463.147 706.383C464.523 706.276 472.995 706.702 473.957 707.109C477.775 715.375 474.169 735.758 459.934 725.086C459.411 723.817 459.45 723.504 460.073 722.456C462.454 721.978 464.769 723.229 467.484 724.04C468.867 723.474 470 722.288 470.294 720.833C467.514 719.633 461.632 721.261 459.829 718.302C456.408 712.687 459.33 709.55 463.147 706.383ZM468.249 717.021C470.084 716.283 470.988 714.211 470.283 712.364C469.577 710.517 467.522 709.575 465.663 710.248C464.43 710.694 463.534 711.77 463.319 713.063C463.104 714.356 463.604 715.664 464.626 716.485C465.648 717.305 467.033 717.51 468.249 717.021Z"/><path fill="#063966" d="M287.725 698.592L290.354 698.606C293.639 700.67 291.825 707.449 291.944 710.922C292.035 713.544 292.456 718.376 291.561 720.677C289.775 721.468 289.792 720.998 287.338 720.332C284.348 721.262 283.395 721.706 280.187 721.364C271.165 715.254 276.216 702.666 287.897 707.621C287.667 704.395 287.384 701.819 287.725 698.592ZM286.223 716.948C287.854 715.785 288.262 713.536 287.145 711.874C286.027 710.212 283.789 709.742 282.097 710.814C280.961 711.534 280.306 712.814 280.385 714.157C280.465 715.499 281.268 716.693 282.481 717.273C283.695 717.853 285.128 717.729 286.223 716.948Z"/><path fill="#063966" d="M348.47 698.456C350.184 698.547 351.423 698.369 352.687 699.434C353.531 701.904 352.282 701.648 352.215 705.07C352.466 705.571 352.718 706.071 352.97 706.572C356.828 706.435 363.33 705.899 364.883 710.53C365.55 712.517 364.404 716.457 363.156 718.71C361.579 720.039 358.367 721.796 356.532 721.088C353.051 719.746 352.847 720.84 349.772 720.747C347.596 718.475 348.418 702.154 348.47 698.456ZM356.255 717.291C357.616 717.352 358.903 716.669 359.615 715.508C360.328 714.346 360.353 712.89 359.683 711.704C359.012 710.518 357.75 709.79 356.388 709.803C354.358 709.821 352.713 711.453 352.677 713.482C352.641 715.511 354.227 717.2 356.255 717.291Z"/><path fill="#063966" d="M657.269 706.06C661.919 706.233 666.239 708.566 665.999 713.436C665.566 722.226 657.925 720.322 653.239 720.106L653.118 721.618C653.302 723.405 653.721 725.725 652.802 727.195C651.312 727.58 651.09 727.445 649.583 727.25C648.676 724.818 648.925 710.162 649.338 707.14C652.047 706.256 653.696 707.367 657.269 706.06ZM658.764 716.984C660.589 716.104 661.382 713.932 660.554 712.083C659.726 710.233 657.576 709.379 655.704 710.155C654.446 710.677 653.57 711.841 653.418 713.195C653.266 714.549 653.862 715.879 654.973 716.666C656.085 717.454 657.536 717.576 658.764 716.984Z"/><path fill="#063966" d="M216.835 706.136C220.324 705.86 218.942 706.533 221.827 707.457C223.334 707.356 225.528 705.632 227.006 705.646C231.611 705.687 232.671 711.782 232.601 715.337C232.563 717.329 232.375 718.819 230.826 720.304C229.158 720.659 229.952 720.725 228.362 720.089C226.327 716.772 230.054 712.873 225.984 710.027C224.228 709.854 225.008 709.643 223.574 710.715C222.445 712.92 222.56 713.473 222.532 715.979C222.968 718.61 223.066 719.158 221.065 721.16L219.836 721.088C216.319 718.38 219.139 715.145 217.332 710.569C215.637 710.035 214.991 710.246 213.715 711.251C212.163 714.67 214.368 718.678 211.868 720.891C210.144 720.835 211.004 720.998 209.279 719.911C207.842 717.995 208.248 710.8 208.485 708.372C210.367 705.935 213.516 707.101 216.835 706.136Z"/><path fill="#063966" d="M191.061 706.527C194.009 706.193 199.354 706.55 202.518 706.671C202.602 711.36 203.863 715.617 201.826 719.542C199.913 720.901 200.152 720.456 197.385 720.641C185.679 722.383 180.85 711.93 191.061 706.527ZM194.748 717.495C196.783 717.261 198.242 715.418 198.003 713.383C197.764 711.348 195.918 709.894 193.883 710.139C191.856 710.382 190.409 712.22 190.647 714.248C190.885 716.275 192.72 717.728 194.748 717.495Z"/><path fill="#063966" d="M301.151 706.569C302.462 706.46 311.172 706.672 312.662 706.821C313.645 710.399 313.897 716.429 312.571 719.909C311.187 720.838 311.939 720.576 310.208 720.639C307.786 720.276 305.624 721.36 303.638 721.04C294.442 719.56 294.355 711.395 301.151 706.569ZM305.74 717.439C307.587 717.122 308.889 715.45 308.744 713.582C308.598 711.713 307.054 710.262 305.179 710.235C303.803 710.215 302.535 710.976 301.903 712.198C301.272 713.421 301.387 714.895 302.2 716.006C303.012 717.116 304.383 717.671 305.74 717.439Z"/><path fill="#063966" d="M688.063 705.991C690.981 706.114 695.308 706.546 698.56 706.716C700.216 709.038 699.639 717.851 698.158 720.427C696.557 721.09 696.664 720.758 694.595 720.357C693.414 719.567 689.175 721.272 687.244 720.482C679.234 717.204 682.067 709.581 688.063 705.991ZM692.246 717.348C694.193 716.663 695.227 714.54 694.566 712.586C693.904 710.631 691.793 709.573 689.831 710.212C688.541 710.632 687.577 711.712 687.306 713.041C687.035 714.37 687.5 715.742 688.522 716.633C689.545 717.524 690.967 717.797 692.246 717.348Z"/><path fill="#063966" d="M580.172 705.988C583.196 706.583 586.453 705.993 588.561 708.215C590.554 710.316 589.51 717.584 589.35 720.641C587.139 720.356 586.106 720.098 583.934 720.408C581.837 720.846 579.499 721.176 577.477 720.311C575.684 719.541 574.298 718.05 573.663 716.204C571.902 710.961 575.702 707.609 580.172 705.988ZM582.702 717.385C584.643 716.812 585.801 714.826 585.344 712.854C584.887 710.883 582.973 709.608 580.978 709.947C579.578 710.185 578.424 711.18 577.983 712.53C577.542 713.88 577.886 715.364 578.876 716.383C579.866 717.402 581.339 717.788 582.702 717.385Z"/><path fill="#063966" d="M373.918 706.062C385.098 705.133 390.306 714.617 379.817 720.829C368.828 721.975 363.359 712.617 373.918 706.062ZM377.116 717.302C378.421 717.183 379.559 716.365 380.086 715.165C380.614 713.966 380.448 712.574 379.653 711.532C378.859 710.49 377.56 709.962 376.264 710.153C374.335 710.438 372.984 712.206 373.214 714.142C373.445 716.077 375.174 717.478 377.116 717.302Z"/><path fill="#063966" d="M498.184 705.721C502.437 705.283 506.262 708.317 506.806 712.558C507.349 716.798 504.412 720.698 500.186 721.347C497.357 721.781 494.515 720.648 492.762 718.386C491.009 716.124 490.62 713.089 491.747 710.458C492.873 707.827 495.337 706.014 498.184 705.721ZM499.726 717.275C501.528 716.838 502.693 715.09 502.403 713.259C502.114 711.427 500.467 710.125 498.618 710.264C497.281 710.366 496.114 711.21 495.599 712.448C495.084 713.687 495.309 715.109 496.181 716.129C497.052 717.148 498.423 717.591 499.726 717.275Z"/><path fill="#063966" d="M395.395 705.744C398.193 705.155 401.092 706.129 402.966 708.289C404.841 710.449 405.398 713.455 404.42 716.143C403.443 718.831 401.086 720.778 398.262 721.23C394.04 721.906 390.05 719.09 389.272 714.886C388.494 710.682 391.211 706.625 395.395 705.744ZM398.238 716.976C399.461 716.54 400.35 715.474 400.559 714.194C400.769 712.913 400.266 711.619 399.246 710.817C398.227 710.014 396.851 709.828 395.655 710.333C393.877 711.082 393.018 713.111 393.717 714.91C394.417 716.709 396.42 717.625 398.238 716.976Z"/><path fill="#063966" d="M771.519 706.172C774.219 705.249 777.207 705.86 779.328 707.767C781.45 709.675 782.373 712.581 781.741 715.364C781.109 718.146 779.021 720.368 776.284 721.173C772.177 722.379 767.859 720.083 766.563 716.003C765.267 711.924 767.469 707.557 771.519 706.172ZM774.755 717.15C776.028 716.882 777.05 715.936 777.416 714.687C777.782 713.439 777.433 712.091 776.507 711.177C775.581 710.264 774.228 709.933 772.984 710.316C771.179 710.873 770.131 712.75 770.605 714.579C771.078 716.408 772.906 717.541 774.755 717.15Z"/><path fill="#063966" d="M409.893 698.377C411.331 698.374 412.213 698.235 413.503 698.87C415.339 701.574 414.468 708.385 414.463 711.906C416.586 709.469 419.319 705.799 423.123 707.096L423.461 708.133C422.564 710.115 420.67 711.169 418.852 712.527C420.705 715.061 421.96 716.354 424.48 718.165C424.739 718.371 425.123 719.02 425.335 719.334L424.949 720.154C419.824 722.561 416.561 716.907 414.308 713.377C414.416 716.08 415.461 719.103 413.029 720.537C411.02 720.493 411.053 720.848 409.829 719.835C409.294 715.166 409.821 703.691 409.893 698.377Z"/><path fill="#063966" d="M617.913 698.481C625.669 698.012 621.235 701.487 622.602 706.68C626.165 707.374 631.613 702.007 632.255 714.599C632.383 717.114 632.689 718.438 630.834 720.424C629.275 720.827 629.977 720.939 628.646 720.176C627.686 718.431 628.027 715.62 628.072 713.504C627.738 711.754 627.857 711.794 626.731 710.453C625.052 709.67 625.87 709.725 624.222 710.055C621.2 712.868 622.836 714.469 622.468 719.273C621.737 720.536 621.764 720.432 620.441 721.089L619.663 720.822C616.87 717.633 617.621 703.165 617.913 698.481Z"/><path fill="#063966" d="M535.021 698.4C536.789 698.479 537.73 698.302 539.043 699.44C539.769 700.879 539.829 700.989 539.744 702.696L539.517 707.995C552.372 700.719 550.449 717.783 546.965 721.139L545.459 720.736C544.977 719.368 545.05 719.068 544.91 717.625C544.856 714.997 545.216 712.801 543.701 710.823C542.036 709.926 542.863 710.024 541.179 710.272C537.509 713.142 540.962 717.014 539.077 720.069C537.52 720.846 537.401 720.67 535.699 720.39C534.546 718.022 534.999 702.201 535.021 698.4Z"/><path fill="#063966" d="M559.002 706.059C559.53 706.033 560.059 706.014 560.588 706.004C565.512 705.923 569.942 707.778 569.592 713.39C567.147 714.856 560.738 713.916 558.652 715.699C560.843 718.755 564.339 717.04 567.045 716.028C567.747 716.44 567.93 716.734 568.524 717.325C567.939 721.983 557.869 722.388 555.528 718.217C552.154 712.205 553.705 709.46 559.002 706.059Z"/><path fill="#063966" d="M812.003 706.021C819.3 706.006 820.45 707.867 822.199 714.459C818.741 714.472 813.476 713.935 810.892 716.045L811.448 716.881C815.124 717.854 815.226 717.557 818.848 715.955C820.434 716.412 819.857 715.96 820.714 717.252C820.145 718.843 819.59 719.463 818.026 720.221C807.574 725.283 800.565 711.394 812.003 706.021Z"/><path fill="#063966" d="M243.161 706.01C247.304 706.093 253.408 708.705 252.275 713.551C249.197 715.709 244.328 713.609 240.95 715.096L240.872 715.728C244.652 718.37 246.634 717.399 250.865 717.134L251.732 717.148L251.974 717.724C248.871 722.669 238.76 722.222 236.8 716.438C234.948 710.976 238.559 707.828 243.161 706.01Z"/><path fill="#063966" d="M794.651 706.02C803.788 705.879 804.902 720.292 798.011 720.467C795.512 717.57 799.414 713.625 794.147 709.887C788.361 712.235 794.075 718.057 790.457 720.667C788.632 720.815 789.441 721.045 787.961 719.915C786.2 716.286 786.639 711.045 787.378 707.163L787.912 706.865C790.732 706.982 791.96 707.19 794.651 706.02Z"/><path fill="#063966" d="M325.396 715.794C326.389 712.427 327.528 707.057 331.356 706.004L331.885 706.585C332.576 710.504 330.602 713.716 328.994 717.475C327.351 721.801 326.212 726.13 321.814 728.362L320.962 727.55C320.422 725.558 322.184 722.906 323.157 721.017L317.037 706.399C323.37 706.428 323.37 710.529 325.396 715.794Z"/><path fill="#063966" d="M446.844 706.185C455.821 704.648 456.117 720.136 450.096 720.615C447.803 718.615 451.336 713.796 446.469 709.338C441.218 714.311 446.716 717.351 442.438 720.956C437.879 721.366 439.244 710.088 439.795 707.168C441.249 706.566 444.356 706.933 446.844 706.185Z"/><path fill="#063966" d="M709.5 706.122C712.366 706.065 718.585 706.285 718.433 710.306C715.833 711.547 712.173 709.134 709.047 711.409C706.639 717.747 712.016 717.514 716.373 716.063C717.793 717.039 717.274 716.421 717.993 717.982C717.565 719.191 717.544 719.371 716.154 720.183C714.221 721.327 711.883 721.562 709.761 720.824C702.809 718.445 700.432 709.626 709.5 706.122Z"/><path fill="#063966" d="M174.34 706.045C177.095 705.893 180.319 706.282 182.083 708.689L181.819 709.83C180.359 710.865 178.228 709.887 175.463 709.745C175.473 711.099 180.228 712.751 182.289 715.767C182.92 719.243 180.823 720.127 177.873 721.176C174.813 720.712 170.447 720.548 170.521 716.744C172.752 715.677 175.328 718.022 177.849 716.733L177.604 717.118C178.169 714.204 172.401 714.889 170.18 710.898C170.705 708.247 172.058 707.603 174.34 706.045Z"/><path fill="#063966" d="M516.518 698.015C518.498 698.447 519.101 698.534 519.962 700.254C519.425 701.907 518.911 701.676 516.845 702.845C516.071 704.483 516.228 703.623 516.522 705.538C517.814 706.776 518.271 707.014 518.712 708.761C517.599 711.872 516.912 708.609 516.493 711.163C515.989 714.229 517.56 718.117 515.703 720.915C514.667 720.837 514.323 720.726 513.303 720.502C511.133 718.181 510.333 706.567 511.815 703.512C513.477 700.086 513.123 699.68 516.518 698.015Z"/><path fill="#10426F" d="M844.384 705.513C844.808 705.589 845.231 705.673 845.653 705.765C847.665 706.213 849.264 706.845 850.38 708.65C850.332 710.244 850.596 709.569 849.624 710.766C847.3 710.771 846.645 709.253 844.124 708.879L843.353 709.541C844.52 712.039 848.19 712.37 850.831 715.73C851.55 719.037 849.339 720.035 846.606 721.205C844.085 721.153 842.162 721.069 840.04 719.723C839.212 718.115 839.349 718.949 839.667 717.125L840.738 716.744C843.148 717.581 844.598 718.68 846.63 716.995C845.041 714.266 839.374 714.235 838.823 709.482C840.087 706.884 841.701 706.483 844.384 705.513Z"/><path fill="#10426F" d="M595.638 697.8C597.505 697.816 597.842 697.733 599.612 698.478C601.031 700.327 600.47 716.975 600.479 720.604C598.945 720.592 597.911 720.497 596.409 720.344C594.95 718.574 595.585 701.276 595.638 697.8Z"/><path fill="#063966" d="M745.946 702.03C747.339 702.052 748.568 701.86 749.622 702.651L749.809 704.574C751.089 706.979 751.942 705.774 753.177 707.741C749.146 712.265 750.062 714.597 750.589 720.413C748.803 720.751 747.522 720.775 746.114 719.862C744.936 717.41 745.473 713.699 745.542 710.717L743.609 708.788C743.283 706.7 744.642 706.893 745.868 704.801C745.9 703.683 745.926 702.759 745.946 702.03Z"/><path fill="#063966" d="M725.056 701.765C726.457 701.92 726.408 701.848 727.609 702.547C731.232 708.918 729.113 712.713 728.21 719.614C728.063 720.74 726.43 721.001 725.529 721.306C722.318 717.228 725.461 714.106 723.542 710.413C722.107 709.812 721.988 709.794 720.744 708.891C720.438 707.385 720.318 708.069 721.076 706.766C725.869 705.557 722.423 704.972 725.056 701.765Z"/><path fill="#063966" d="M606.567 701.964C607.755 701.936 609.054 701.989 610.252 702.011L610.746 702.722C610.422 706.192 610.296 705.647 613.14 707.296C613.662 708.789 613.686 708.087 613.235 709.47C608.992 711.089 610.459 715.607 610.589 719.89C609.645 720.687 608.676 720.855 607.537 720.572C605.468 718.146 607.037 713.109 606.473 710.135C606.355 709.514 604.999 709.86 604.75 707.638C606.133 705.357 606.748 704.658 606.567 701.964Z"/><path fill="#063966" d="M833.912 705.699C835.603 706.019 836.037 706.465 836.273 707.967C835.863 709.289 834.619 710.62 833.449 711.311C830.622 712.982 831.461 716.044 831.207 719.718C830.112 720.875 829.256 720.522 827.143 720.716C825.996 718.969 826.404 709.805 826.882 707.382C827.829 706.27 827.257 706.681 828.777 706.363C831.837 708.008 831.458 707.791 833.912 705.699Z"/><path fill="#063966" d="M677.81 705.974C679.598 706.781 680.149 707.035 679.847 708.909C678.491 710.453 677.073 710.842 675.142 711.68C674.764 715.442 676.046 719.466 672.471 721.132L671.174 720.326C670.095 718.179 670.113 710.706 670.499 708.055C670.875 705.462 673.799 707.276 675.621 707.199C676.486 706.715 677.216 706.307 677.81 705.974Z"/><path fill="#10426F" d="M573.007 468.058L575.839 467.146C575.5 469.105 575.311 470.765 574.572 472.622C561.677 483.169 579.912 481.322 585.511 487.916L585.248 488.325C584.132 487.811 581.754 486.342 581.289 486.181C577.149 484.75 568.692 483.701 566.311 479.691C566.1 476.11 571.681 472.793 573.007 468.058Z"/><path fill="#10426F" d="M588.414 468.778C593.137 469.235 594.767 471.634 598.299 471.861L599.426 470.561C609.303 474.207 615.265 467.88 629.003 472.07C609.248 471.235 607.118 479.175 588.414 468.778Z"/><path fill="#063966" d="M256.37 711.076C261.283 711.166 266.171 710.012 270.199 711.798C271.462 713.534 271.022 713.469 271.097 716.106C266.117 715.508 261.376 716.336 257.288 714.992C255.981 713.545 256.435 713.659 256.37 711.076Z"/><path fill="#063966" d="M428.818 706.26C430.374 706.203 431.436 705.968 432.741 706.751C434.489 709.474 433.539 716.774 433.593 720.861C432.119 720.807 431.324 720.911 430.021 720.211C428.261 717.516 429.054 710.421 428.818 706.26Z"/><path fill="#063966" d="M756.995 706.179C758.425 706.291 759.209 706.241 760.506 706.884C762.488 709.97 761.554 716.42 761.496 720.541C759.996 720.599 759.026 720.827 757.79 720.032C756.153 717.166 757.006 710.153 756.995 706.179Z"/><path fill="#063966" d="M734.728 706.014C736.006 706.174 737.277 706.433 738.546 706.664C739.449 708.346 738.969 718.22 738.913 720.825C737.204 720.685 736.735 720.637 735.08 720.251C734.509 718.21 734.433 708.411 734.728 706.014Z"/><path fill="#10426F" d="M664.013 393.286C665.036 392.12 665.264 392.139 665.41 390.658C670.572 392.917 672.61 390.565 676.956 391.481C673.152 394.078 668.358 394.382 664.013 393.286Z"/><path fill="#10426F" d="M735.522 699.187C736.364 698.757 737.373 698.814 738.161 699.336C738.95 699.858 739.396 700.765 739.329 701.708C739.261 702.651 738.691 703.485 737.837 703.89C736.542 704.504 734.994 703.965 734.362 702.679C733.729 701.394 734.246 699.838 735.522 699.187Z"/><path fill="#063966" d="M758.367 698.697C759.307 698.459 760.302 698.766 760.944 699.494C761.586 700.221 761.768 701.247 761.414 702.151C761.06 703.054 760.23 703.684 759.265 703.782C757.916 703.919 756.689 702.992 756.454 701.657C756.218 700.322 757.052 699.03 758.367 698.697Z"/><path fill="#10426F" d="M429.634 699.291C430.312 698.71 431.251 698.538 432.091 698.84C432.932 699.143 433.545 699.874 433.696 700.755C433.848 701.635 433.515 702.529 432.824 703.096C431.772 703.959 430.221 703.814 429.347 702.771C428.473 701.729 428.601 700.176 429.634 699.291Z"/></svg>